<svg width="204" height="38" viewBox="0 0 204 38" fill="none" xmlns="http://www.w3.org/2000/svg">
<path d="M1.17578 11.1973C1.17578 8.05273 1.97331 5.55534 3.56836 3.70508C5.16341 1.85482 7.46484 0.929688 10.4727 0.929688C12.2044 0.929688 13.6719 1.19857 14.875 1.73633C16.0781 2.27409 16.9258 3.05339 17.418 4.07422C17.7461 4.7487 17.6914 5.20443 17.2539 5.44141L15.6133 6.31641C15.0391 6.6263 14.5651 6.45312 14.1914 5.79688C13.9544 5.3776 13.5124 4.99935 12.8652 4.66211C12.2272 4.32487 11.4753 4.15625 10.6094 4.15625C8.69531 4.15625 7.35547 4.76237 6.58984 5.97461C5.82422 7.17773 5.44141 8.91862 5.44141 11.1973C5.44141 13.4759 5.82422 15.2214 6.58984 16.4336C7.35547 17.6367 8.69531 18.2383 10.6094 18.2383C11.6393 18.2383 12.5052 18.0059 13.207 17.541C13.918 17.0762 14.4102 16.6341 14.6836 16.2148C15.1302 15.5312 15.6042 15.3581 16.1055 15.6953L17.7461 16.7891C18.1927 17.0898 18.2383 17.5456 17.8828 18.1562C17.3542 19.0677 16.4473 19.847 15.1621 20.4941C13.877 21.1413 12.3138 21.4648 10.4727 21.4648C7.51042 21.4648 5.2181 20.5397 3.5957 18.6895C1.98242 16.8392 1.17578 14.3418 1.17578 11.1973ZM22.5312 21C21.8932 21 21.5742 20.6582 21.5742 19.9746V2.41992C21.5742 1.73633 21.8932 1.39453 22.5312 1.39453H24.7461C25.293 1.39453 25.5664 1.73633 25.5664 2.41992V17.6094H33.5371C34.2207 17.6094 34.5625 17.9056 34.5625 18.498V20.1113C34.5625 20.7038 34.2207 21 33.5371 21H22.5312ZM36.4492 11.1973C36.4492 8.05273 37.2604 5.55534 38.8828 3.70508C40.5052 1.85482 42.8203 0.929688 45.8281 0.929688C48.8359 0.929688 51.151 1.85482 52.7734 3.70508C54.3958 5.55534 55.207 8.05273 55.207 11.1973C55.207 14.3418 54.3958 16.8392 52.7734 18.6895C51.151 20.5397 48.8359 21.4648 45.8281 21.4648C42.8203 21.4648 40.5052 20.5397 38.8828 18.6895C37.2604 16.8392 36.4492 14.3418 36.4492 11.1973ZM40.7148 11.1973C40.7148 13.4759 41.1204 15.2214 41.9316 16.4336C42.752 17.6367 44.0508 18.2383 45.8281 18.2383C47.6055 18.2383 48.8997 17.6367 49.7109 16.4336C50.5312 15.2214 50.9414 13.4759 50.9414 11.1973C50.9414 8.91862 50.5312 7.17773 49.7109 5.97461C48.8997 4.76237 47.6055 4.15625 45.8281 4.15625C44.0508 4.15625 42.752 4.76237 41.9316 5.97461C41.1204 7.17773 40.7148 8.91862 40.7148 11.1973ZM58.5703 12.8379V2.14648C58.5703 1.64518 58.8893 1.39453 59.5273 1.39453H61.6055C62.2435 1.39453 62.5625 1.64518 62.5625 2.14648V12.7012C62.5625 15.1621 62.9225 16.7025 63.6426 17.3223C64.3717 17.9329 65.1921 18.2383 66.1035 18.2383C67.015 18.2383 67.8307 17.9329 68.5508 17.3223C69.2799 16.7025 69.6445 15.1621 69.6445 12.7012V2.14648C69.6445 1.64518 69.9635 1.39453 70.6016 1.39453H72.6797C73.3177 1.39453 73.6367 1.64518 73.6367 2.14648V12.8379C73.6367 16.028 72.9622 18.2656 71.6133 19.5508C70.2643 20.8268 68.4277 21.4648 66.1035 21.4648C63.7793 21.4648 61.9427 20.8268 60.5938 19.5508C59.2448 18.2656 58.5703 16.028 58.5703 12.8379ZM78.9688 21C78.3307 21 78.0117 20.6582 78.0117 19.9746V2.41992C78.0117 1.73633 78.3307 1.39453 78.9688 1.39453H83.7402C87.9329 1.39453 90.7676 2.24219 92.2441 3.9375C93.7298 5.63281 94.4727 8.04362 94.4727 11.1699C94.4727 14.2962 93.7298 16.7161 92.2441 18.4297C90.7676 20.1432 87.9329 21 83.7402 21H78.9688ZM82.0039 17.6094H83.4805C86.306 17.6094 88.1335 17.0853 88.9629 16.0371C89.7923 14.9798 90.207 13.3574 90.207 11.1699C90.207 8.98242 89.7923 7.36914 88.9629 6.33008C88.1335 5.2819 86.306 4.75781 83.4805 4.75781H82.0039V17.6094ZM108.363 21C107.725 21 107.406 20.6582 107.406 19.9746V2.41992C107.406 1.73633 107.725 1.39453 108.363 1.39453H110.578C111.125 1.39453 111.398 1.73633 111.398 2.41992V17.6094H119.369C120.053 17.6094 120.395 17.9056 120.395 18.498V20.1113C120.395 20.7038 120.053 21 119.369 21H108.363ZM123.293 12.8379V2.14648C123.293 1.64518 123.612 1.39453 124.25 1.39453H126.328C126.966 1.39453 127.285 1.64518 127.285 2.14648V12.7012C127.285 15.1621 127.645 16.7025 128.365 17.3223C129.094 17.9329 129.915 18.2383 130.826 18.2383C131.738 18.2383 132.553 17.9329 133.273 17.3223C134.003 16.7025 134.367 15.1621 134.367 12.7012V2.14648C134.367 1.64518 134.686 1.39453 135.324 1.39453H137.402C138.04 1.39453 138.359 1.64518 138.359 2.14648V12.8379C138.359 16.028 137.685 18.2656 136.336 19.5508C134.987 20.8268 133.15 21.4648 130.826 21.4648C128.502 21.4648 126.665 20.8268 125.316 19.5508C123.967 18.2656 123.293 16.028 123.293 12.8379ZM143.691 21C143.053 21 142.734 20.6582 142.734 19.9746V2.41992C142.734 1.73633 143.053 1.39453 143.691 1.39453H147.656C148.185 1.39453 148.563 1.75911 148.791 2.48828L152.496 14.4785C152.66 14.998 152.774 15.4264 152.838 15.7637C152.902 16.0918 152.956 16.4837 153.002 16.9395H153.084C153.13 16.4837 153.184 16.0918 153.248 15.7637C153.312 15.4264 153.426 14.998 153.59 14.4785L157.295 2.48828C157.523 1.75911 157.901 1.39453 158.43 1.39453H162.395C163.033 1.39453 163.352 1.73633 163.352 2.41992V19.9746C163.352 20.6582 163.033 21 162.395 21H160.316C159.678 21 159.359 20.6582 159.359 19.9746V8.68164C159.359 8.13477 159.382 7.58789 159.428 7.04102H159.332L155.381 19.8926C155.153 20.6309 154.761 21 154.205 21H151.881C151.325 21 150.933 20.6309 150.705 19.8926L146.754 7.04102H146.658C146.704 7.58789 146.727 8.13477 146.727 8.68164V19.9746C146.727 20.6582 146.408 21 145.77 21H143.691ZM168.684 21C168.046 21 167.727 20.6582 167.727 19.9746V2.41992C167.727 1.73633 168.046 1.39453 168.684 1.39453H180.414C181.098 1.39453 181.439 1.69076 181.439 2.2832V3.89648C181.439 4.48893 181.098 4.78516 180.414 4.78516H171.719V9.13281H179.689C180.373 9.13281 180.715 9.42904 180.715 10.0215V11.6348C180.715 12.2272 180.373 12.5234 179.689 12.5234H171.719V17.6094H180.852C181.535 17.6094 181.877 17.9056 181.877 18.498V20.1113C181.877 20.7038 181.535 21 180.852 21H168.684ZM186.184 21C185.546 21 185.227 20.6582 185.227 19.9746V2.41992C185.227 1.73633 185.546 1.39453 186.184 1.39453H188.207C188.991 1.39453 189.583 1.71354 189.984 2.35156L196.957 13.5488H197.053C197.007 13.002 196.984 12.4551 196.984 11.9082V2.41992C196.984 1.73633 197.303 1.39453 197.941 1.39453H200.02C200.658 1.39453 200.977 1.73633 200.977 2.41992V19.9746C200.977 20.6582 200.658 21 200.02 21H198.133C197.349 21 196.757 20.681 196.355 20.043L189.246 8.64062H189.15C189.196 9.1875 189.219 9.73438 189.219 10.2812V19.9746C189.219 20.6582 188.9 21 188.262 21H186.184Z" fill="url(#paint0_linear_64_4)"/>
<path d="M11.32 36V28.85H11.8V35.56H15.09V36H11.32ZM16.6325 36V28.85H19.9525V29.27H17.1125V31.9H19.6825V32.31H17.1125V35.58H20.0625V36H16.6325ZM22.3641 33.52L21.3341 36H20.8241L23.8341 28.8H24.1141L27.1341 36H26.5941L25.5641 33.52H22.3641ZM23.9441 29.6C23.9374 29.6067 23.9241 29.6467 23.9041 29.72C23.8107 30.0067 23.7207 30.25 23.6341 30.45L22.5341 33.11H25.3941L24.2941 30.46C24.0607 29.9533 23.9441 29.6667 23.9441 29.6ZM30.9049 35.65C31.8449 35.65 32.5983 35.3967 33.1649 34.89C33.7383 34.3767 34.0249 33.6067 34.0249 32.58C34.0249 31.5533 33.7016 30.7367 33.0549 30.13C32.4149 29.5233 31.6216 29.22 30.6749 29.22C30.0683 29.22 29.5416 29.2367 29.0949 29.27V35.57C29.5283 35.6233 30.1316 35.65 30.9049 35.65ZM30.6749 28.78C31.7749 28.78 32.6949 29.1233 33.4349 29.81C34.1749 30.49 34.5449 31.4167 34.5449 32.59C34.5449 33.1833 34.4483 33.71 34.2549 34.17C34.0683 34.6233 33.8083 34.9867 33.4749 35.26C32.7883 35.8133 31.9316 36.09 30.9049 36.09C30.2316 36.09 29.4683 36.0533 28.6149 35.98V28.85C29.2949 28.8033 29.9816 28.78 30.6749 28.78ZM36.7692 36V28.85H37.2492V36H36.7692ZM40.3445 29.99L40.3645 30.84V36H39.8845V28.79H40.1045L44.8145 34.22C45.1345 34.6 45.3811 34.9033 45.5545 35.13C45.5278 34.81 45.5145 34.4433 45.5145 34.03V28.85H45.9945V36.06H45.7745L40.9745 30.53C40.6411 30.15 40.4278 29.8967 40.3345 29.77L40.3445 29.99ZM51.7045 29.17C50.8311 29.17 50.1178 29.4833 49.5645 30.11C49.0111 30.7367 48.7345 31.5067 48.7345 32.42C48.7345 33.3267 49.0478 34.0967 49.6745 34.73C50.3011 35.3633 51.0645 35.68 51.9645 35.68C52.7378 35.68 53.3811 35.5733 53.8945 35.36V32.42H54.3745V35.58C53.7945 35.94 52.9811 36.12 51.9345 36.12C50.8945 36.12 50.0145 35.7633 49.2945 35.05C48.5745 34.33 48.2145 33.4533 48.2145 32.42C48.2145 31.38 48.5411 30.5067 49.1945 29.8C49.8478 29.0867 50.6845 28.73 51.7045 28.73C52.5045 28.73 53.3145 28.8633 54.1345 29.13L54.0045 29.53C53.2045 29.29 52.4378 29.17 51.7045 29.17ZM61.7806 29.27H59.3606V28.85H64.6806V29.27H62.2606V36H61.7806V29.27ZM71.6123 36V32.42H66.7023V36H66.2223V28.85H66.7023V31.99H71.6123V28.85H72.0923V36H71.6123ZM74.7282 36V28.85H78.0482V29.27H75.2082V31.9H77.7782V32.31H75.2082V35.58H78.1582V36H74.7282ZM85.9733 35.65C86.9133 35.65 87.6666 35.3967 88.2333 34.89C88.8066 34.3767 89.0933 33.6067 89.0933 32.58C89.0933 31.5533 88.7699 30.7367 88.1233 30.13C87.4833 29.5233 86.6899 29.22 85.7433 29.22C85.1366 29.22 84.6099 29.2367 84.1633 29.27V35.57C84.5966 35.6233 85.1999 35.65 85.9733 35.65ZM85.7433 28.78C86.8433 28.78 87.7633 29.1233 88.5033 29.81C89.2433 30.49 89.6133 31.4167 89.6133 32.59C89.6133 33.1833 89.5166 33.71 89.3233 34.17C89.1366 34.6233 88.8766 34.9867 88.5433 35.26C87.8566 35.8133 86.9999 36.09 85.9733 36.09C85.2999 36.09 84.5366 36.0533 83.6833 35.98V28.85C84.3633 28.8033 85.0499 28.78 85.7433 28.78ZM91.8376 36V28.85H92.3176V36H91.8376ZM98.0228 29.17C97.1495 29.17 96.4361 29.4833 95.8828 30.11C95.3295 30.7367 95.0528 31.5067 95.0528 32.42C95.0528 33.3267 95.3661 34.0967 95.9928 34.73C96.6195 35.3633 97.3828 35.68 98.2828 35.68C99.0561 35.68 99.6995 35.5733 100.213 35.36V32.42H100.693V35.58C100.113 35.94 99.2995 36.12 98.2528 36.12C97.2128 36.12 96.3328 35.7633 95.6128 35.05C94.8928 34.33 94.5328 33.4533 94.5328 32.42C94.5328 31.38 94.8595 30.5067 95.5128 29.8C96.1661 29.0867 97.0028 28.73 98.0228 28.73C98.8228 28.73 99.6328 28.8633 100.453 29.13L100.323 29.53C99.5228 29.29 98.7561 29.17 98.0228 29.17ZM103.175 36V28.85H103.655V36H103.175ZM107.611 29.27H105.191V28.85H110.511V29.27H108.091V36H107.611V29.27ZM111.671 33.52L110.641 36H110.131L113.141 28.8H113.421L116.441 36H115.901L114.871 33.52H111.671ZM113.251 29.6C113.244 29.6067 113.231 29.6467 113.211 29.72C113.117 30.0067 113.027 30.25 112.941 30.45L111.841 33.11H114.701L113.601 30.46C113.367 29.9533 113.251 29.6667 113.251 29.6ZM117.922 36V28.85H118.402V35.56H121.692V36H117.922ZM126.838 36V28.88C127.471 28.8333 128.001 28.81 128.428 28.81C129.108 28.81 129.668 28.9867 130.108 29.34C130.548 29.6867 130.768 30.18 130.768 30.82C130.768 31.2533 130.641 31.6567 130.388 32.03C130.134 32.4033 129.851 32.7 129.538 32.92C129.784 33.26 130.088 33.6667 130.448 34.14C130.814 34.6067 131.051 34.9 131.158 35.02C131.564 35.4533 132.024 35.7 132.538 35.76L132.528 36.08C132.121 36.0733 131.791 36.0133 131.538 35.9C131.284 35.78 131.041 35.6 130.808 35.36C130.581 35.12 130.011 34.3733 129.098 33.12C128.444 33.12 127.851 33.1 127.318 33.06V36H126.838ZM128.808 32.72C129.101 32.72 129.414 32.5267 129.748 32.14C130.081 31.7533 130.248 31.3067 130.248 30.8C130.248 30.2867 130.074 29.9 129.728 29.64C129.388 29.3733 128.934 29.24 128.368 29.24C128.068 29.24 127.718 29.2533 127.318 29.28V32.67C127.851 32.7033 128.348 32.72 128.808 32.72ZM133.42 36V28.85H136.74V29.27H133.9V31.9H136.47V32.31H133.9V35.58H136.85V36H133.42ZM141.151 34.55L143.551 28.85H144.061L140.981 36.06H140.701L137.611 28.85H138.151L140.551 34.53C140.718 34.9367 140.821 35.2167 140.861 35.37C140.915 35.1567 141.011 34.8833 141.151 34.55ZM146.011 35.05C145.351 34.3367 145.021 33.46 145.021 32.42C145.021 31.38 145.351 30.5067 146.011 29.8C146.678 29.0867 147.518 28.73 148.531 28.73C149.544 28.73 150.384 29.0867 151.051 29.8C151.718 30.5067 152.051 31.38 152.051 32.42C152.051 33.46 151.718 34.3367 151.051 35.05C150.384 35.7633 149.544 36.12 148.531 36.12C147.518 36.12 146.678 35.7633 146.011 35.05ZM146.371 30.11C145.818 30.73 145.541 31.5 145.541 32.42C145.541 33.34 145.818 34.1133 146.371 34.74C146.931 35.3667 147.651 35.68 148.531 35.68C149.418 35.68 150.138 35.3667 150.691 34.74C151.251 34.1133 151.531 33.34 151.531 32.42C151.531 31.5 151.251 30.73 150.691 30.11C150.138 29.4833 149.418 29.17 148.531 29.17C147.644 29.17 146.924 29.4833 146.371 30.11ZM154.269 36V28.85H154.749V35.56H158.039V36H154.269ZM164.158 35.31C163.698 35.85 162.998 36.12 162.058 36.12C161.118 36.12 160.414 35.8467 159.948 35.3C159.488 34.7533 159.258 34.0067 159.258 33.06V28.85H159.738V33.06C159.738 34.82 160.508 35.7 162.048 35.7C163.594 35.7 164.368 34.82 164.368 33.06V28.85H164.848V33.06C164.848 34.0133 164.618 34.7633 164.158 35.31ZM168.724 29.27H166.304V28.85H171.624V29.27H169.204V36H168.724V29.27ZM173.166 36V28.85H173.646V36H173.166ZM176.851 35.05C176.191 34.3367 175.861 33.46 175.861 32.42C175.861 31.38 176.191 30.5067 176.851 29.8C177.518 29.0867 178.358 28.73 179.371 28.73C180.384 28.73 181.224 29.0867 181.891 29.8C182.558 30.5067 182.891 31.38 182.891 32.42C182.891 33.46 182.558 34.3367 181.891 35.05C181.224 35.7633 180.384 36.12 179.371 36.12C178.358 36.12 177.518 35.7633 176.851 35.05ZM177.211 30.11C176.658 30.73 176.381 31.5 176.381 32.42C176.381 33.34 176.658 34.1133 177.211 34.74C177.771 35.3667 178.491 35.68 179.371 35.68C180.258 35.68 180.978 35.3667 181.531 34.74C182.091 34.1133 182.371 33.34 182.371 32.42C182.371 31.5 182.091 30.73 181.531 30.11C180.978 29.4833 180.258 29.17 179.371 29.17C178.484 29.17 177.764 29.4833 177.211 30.11ZM185.569 29.99L185.589 30.84V36H185.109V28.79H185.329L190.039 34.22C190.359 34.6 190.606 34.9033 190.779 35.13C190.752 34.81 190.739 34.4433 190.739 34.03V28.85H191.219V36.06H190.999L186.199 30.53C185.866 30.15 185.652 29.8967 185.559 29.77L185.569 29.99Z" fill="url(#paint1_linear_64_4)"/>
<defs>
<linearGradient id="paint0_linear_64_4" x1="102" y1="8" x2="102" y2="18" gradientUnits="userSpaceOnUse">
<stop stop-color="#9AD3F1"/>
<stop offset="1" stop-color="#089AD7"/>
</linearGradient>
<linearGradient id="paint1_linear_64_4" x1="101.5" y1="28" x2="101.5" y2="38" gradientUnits="userSpaceOnUse">
<stop offset="0.5" stop-color="#9AD3F1"/>
<stop offset="1" stop-color="#089AD7"/>
</linearGradient>
</defs>
</svg>
